<svg xmlns="http://www.w3.org/2000/svg" fill="#f3472f" width="20" xmlns:xlink="http://www.w3.org/1999/xlink" x="0px" y="0px" viewBox="0 0 28.3 20" style="enable-background:new 0 0 28.3 20;" xml:space="preserve"><g> <path d="M5.4,0.5h17.5c0.2,0,0.4,0.2,0.4,0.4c0,0.1-0.1,0.2-0.2,0.3l-8.4,5.9c-0.3,0.2-0.7,0.2-1,0L5.2,1.2  C5,1.1,5,0.8,5.1,0.7C5.2,0.6,5.3,0.5,5.4,0.5"></path>	<path d="M27.6,4.1v13c0,1.4-1.1,2.5-2.5,2.5l0,0h-22c-1.4,0-2.5-1.1-2.5-2.5v-13c0-0.3,0.3-0.6,0.6-0.6  c0.1,0,0.2,0,0.3,0.1l10.1,7.1c1.5,1,3.5,1,4.9,0l10.1-7.1c0.3-0.2,0.6-0.1,0.8,0.1C27.6,3.9,27.6,4,27.6,4.1"></path></g></svg>