<svg xmlns="http://www.w3.org/2000/svg" fill="#f3472f" width="20" xmlns:xlink="http://www.w3.org/1999/xlink" x="0px" y="0px" viewBox="0 0 20.9 25" style="enable-background:new 0 0 20.9 25;" xml:space="preserve"><g>	<path d="M10.5,0.5C4.9,0.5,0.4,5,0.4,10.6c0,0,0,0,0,0c0,5.5,3.3,8.5,6.1,11c1.1,1.1,2.2,1.9,2.9,2.5  c0.6,0.5,1.5,0.5,2.1,0c0.7-0.6,1.7-1.5,2.9-2.5c2.8-2.6,6.1-5.5,6.1-11C20.5,5,16,0.5,10.5,0.5C10.5,0.5,10.5,0.5,10.5,0.5   M10.3,15.7c-2.7-0.1-4.8-2.4-4.7-5.1S8,5.9,10.7,6c2.6,0.1,4.7,2.3,4.7,4.9c0,2.7-2.2,4.9-4.9,4.9C10.4,15.7,10.3,15.7,10.3,15.7"></path></g></svg>