<svg xmlns="http://www.w3.org/2000/svg" fill="white" width="40" height="40" xmlns:xlink="http://www.w3.org/1999/xlink" x="0px" y="0px" viewBox="0 0 27.9 32.1" style="enable-background:new 0 0 27.9 32.1;" xml:space="preserve"><path d="M9.2,29.5H8.9c-1.9,0-3.6-1-4.4-2.7l-0.1-0.2c-0.3-0.9-0.6-1.9-0.8-2.9c-0.3-2.6-0.5-5.2-0.5-7.8c0-2.6,0.1-5.3,0.5-7.9 c0.2-0.8,0.3-1.6,0.6-2.4l0-0.1c0.4-1,1.2-1.9,2.2-2.4c0.8-0.4,1.6-0.6,2.5-0.6c0,0,0,0,0,0l0.2,0c1,0.1,1.9,0.4,2.8,0.8 c2.7,1.2,5.3,2.7,7.7,4.5c1.7,1.2,3.3,2.5,4.8,4c0.3,0.3,0.6,0.6,0.8,0.8c0.1,0.1,0.2,0.2,0.2,0.2l0.1,0.1c0.7,0.9,1,2,1,3.1 c0,1-0.3,2.1-1,2.9c-0.3,0.4-0.6,0.7-0.9,1.1l-0.2,0.2c-2.6,2.8-8.9,7-12.3,8.4C11.4,29,10.3,29.4,9.2,29.5L9.2,29.5z M6.8,25.7 C7.2,26.5,8.1,27,8.9,27h0c0.8-0.1,1.6-0.4,2.3-0.7c3.1-1.3,9.1-5.3,11.5-7.8l0.2-0.2c0.2-0.3,0.5-0.5,0.7-0.8 c0.3-0.4,0.4-0.9,0.4-1.4c0-0.6-0.2-1.1-0.5-1.5c-0.1-0.1-0.1-0.1-0.2-0.2c-0.2-0.2-0.5-0.5-0.7-0.8c-1.4-1.4-2.9-2.6-4.5-3.7 C16,8.2,13.6,6.8,11,5.6c-0.6-0.3-1.3-0.5-2-0.6c-0.4,0-0.8,0.1-1.2,0.3C7.3,5.6,6.9,6,6.7,6.5c-0.2,0.6-0.4,1.3-0.5,2 c-0.4,2.4-0.5,5-0.5,7.5c0,2.5,0.1,5,0.4,7.4C6.3,24.1,6.5,25,6.8,25.7z"></path></svg>